<svg width="16" height="17" viewBox="0 0 16 17" fill="none" xmlns="http://www.w3.org/2000/svg">
<path d="M11.3334 9.16658L8.66669 15.1666C8.13625 15.1666 7.62755 14.9559 7.25247 14.5808C6.8774 14.2057 6.66669 13.697 6.66669 13.1666V10.4999H2.89335C2.70008 10.5021 2.50864 10.4622 2.33231 10.3831C2.15597 10.304 1.99894 10.1874 1.87211 10.0416C1.74529 9.89572 1.65168 9.72403 1.59779 9.53841C1.5439 9.35279 1.53102 9.15768 1.56002 8.96658L2.48002 2.96658C2.52824 2.64864 2.68973 2.35884 2.93475 2.15058C3.17977 1.94231 3.4918 1.82961 3.81335 1.83325H11.3334M11.3334 9.16658V1.83325M11.3334 9.16658H13.1134C13.4907 9.17325 13.8573 9.04116 14.1436 8.79537C14.43 8.54958 14.6161 8.20721 14.6667 7.83325V3.16658C14.6161 2.79262 14.43 2.45025 14.1436 2.20446C13.8573 1.95867 13.4907 1.82658 13.1134 1.83325H11.3334" stroke="#1E1E1E" stroke-linecap="round" stroke-linejoin="round"/>
</svg>
