<svg width="16" height="17" viewBox="0 0 16 17" fill="none" xmlns="http://www.w3.org/2000/svg">
<path d="M3.33325 10.4999H2.66659C2.31296 10.4999 1.97382 10.3594 1.72378 10.1094C1.47373 9.85935 1.33325 9.52021 1.33325 9.16659V3.16659C1.33325 2.81296 1.47373 2.47382 1.72378 2.22378C1.97382 1.97373 2.31296 1.83325 2.66659 1.83325H8.66659C9.02021 1.83325 9.35935 1.97373 9.60939 2.22378C9.85944 2.47382 9.99992 2.81296 9.99992 3.16659V3.83325M7.33325 6.49992H13.3333C14.0696 6.49992 14.6666 7.09687 14.6666 7.83325V13.8333C14.6666 14.5696 14.0696 15.1666 13.3333 15.1666H7.33325C6.59687 15.1666 5.99992 14.5696 5.99992 13.8333V7.83325C5.99992 7.09687 6.59687 6.49992 7.33325 6.49992Z" stroke="#1E1E1E" stroke-linecap="round" stroke-linejoin="round"/>
</svg>
