<svg width="28" height="27" viewBox="0 0 28 27" fill="none" xmlns="http://www.w3.org/2000/svg">
<path fill-rule="evenodd" clip-rule="evenodd" d="M9.73987 3.31831C8.21568 3.72807 6.70137 4.17375 5.19821 4.65498C5.06218 4.69697 4.94075 4.77649 4.84788 4.88439C4.75501 4.9923 4.69447 5.12421 4.67321 5.26498C3.78488 11.76 5.83487 16.5 8.27987 19.6216C9.50654 21.1883 10.8349 22.3483 11.9415 23.11C12.4965 23.49 12.9849 23.7666 13.3699 23.9433C13.5632 24.0316 13.7199 24.0916 13.8399 24.1266C13.8928 24.1437 13.9468 24.157 14.0015 24.1666C14.0132 24.165 14.0649 24.1583 14.1632 24.1283C14.2832 24.0916 14.4399 24.0316 14.6332 23.9433C15.0165 23.7666 15.5082 23.49 16.0615 23.11C17.4492 22.1363 18.6835 20.9605 19.7232 19.6216C22.1682 16.5 24.2182 11.76 23.3299 5.26498C23.3086 5.12421 23.2481 4.9923 23.1552 4.88439C23.0623 4.77649 22.9409 4.69697 22.8049 4.65498C21.7615 4.32165 20.0015 3.77831 18.2632 3.31831C16.4865 2.84998 14.8515 2.49998 14.0015 2.49998C13.1515 2.49998 11.5182 2.84998 9.73987 3.31831ZM9.31321 1.70831C11.0515 1.24831 12.8965 0.833313 14.0015 0.833313C15.1049 0.833313 16.9515 1.24831 18.6899 1.70831C20.2404 2.1246 21.7808 2.57751 23.3099 3.06665C24.1899 3.34665 24.8532 4.10498 24.9815 5.03998C25.9365 12.035 23.7215 17.2183 21.0365 20.6483C19.8923 22.1203 18.5339 23.4125 17.0065 24.4816C16.4755 24.8537 15.914 25.1804 15.3282 25.4583C14.8782 25.665 14.3982 25.8333 14.0015 25.8333C13.6049 25.8333 13.1249 25.665 12.6749 25.4583C12.0889 25.1806 11.5275 24.8539 10.9965 24.4816C9.46978 23.4123 8.11191 22.1202 6.96821 20.6483C4.27988 17.2183 2.06654 12.035 3.02154 5.03998C3.08539 4.58676 3.27629 4.1609 3.57213 3.81167C3.86797 3.46244 4.25666 3.20414 4.69321 3.06665C6.22229 2.57752 7.76272 2.12462 9.31321 1.70831Z" fill="#FF8642"/>
<path fill-rule="evenodd" clip-rule="evenodd" d="M13.9999 9.16669C14.2209 9.16669 14.4329 9.25448 14.5892 9.41076C14.7455 9.56705 14.8333 9.77901 14.8333 10V12.5H17.3333C17.5543 12.5 17.7662 12.5878 17.9225 12.7441C18.0788 12.9004 18.1666 13.1123 18.1666 13.3334C18.1666 13.5544 18.0788 13.7663 17.9225 13.9226C17.7662 14.0789 17.5543 14.1667 17.3333 14.1667H14.8333V16.6667C14.8333 16.8877 14.7455 17.0997 14.5892 17.2559C14.4329 17.4122 14.2209 17.5 13.9999 17.5C13.7789 17.5 13.5669 17.4122 13.4107 17.2559C13.2544 17.0997 13.1666 16.8877 13.1666 16.6667V14.1667H10.6666C10.4456 14.1667 10.2336 14.0789 10.0773 13.9226C9.92105 13.7663 9.83325 13.5544 9.83325 13.3334C9.83325 13.1123 9.92105 12.9004 10.0773 12.7441C10.2336 12.5878 10.4456 12.5 10.6666 12.5H13.1666V10C13.1666 9.77901 13.2544 9.56705 13.4107 9.41076C13.5669 9.25448 13.7789 9.16669 13.9999 9.16669Z" fill="#FF8642"/>
</svg>
