<svg width="28" height="27" viewBox="0 0 28 27" fill="none" xmlns="http://www.w3.org/2000/svg">
<path fill-rule="evenodd" clip-rule="evenodd" d="M9.73987 3.31825C8.21568 3.72801 6.70137 4.17369 5.19821 4.65492C5.06218 4.69691 4.94075 4.77643 4.84788 4.88433C4.75501 4.99223 4.69447 5.12415 4.67321 5.26492C3.78488 11.7599 5.83487 16.4999 8.27987 19.6216C9.50654 21.1882 10.8349 22.3482 11.9415 23.1099C12.4965 23.4899 12.9849 23.7666 13.3699 23.9433C13.5632 24.0316 13.7199 24.0916 13.8399 24.1266C13.8928 24.1436 13.9468 24.157 14.0015 24.1666C14.0132 24.1649 14.0649 24.1583 14.1632 24.1283C14.2832 24.0916 14.4399 24.0316 14.6332 23.9433C15.0165 23.7666 15.5082 23.4899 16.0615 23.1099C17.4492 22.1363 18.6835 20.9605 19.7232 19.6216C22.1682 16.4999 24.2182 11.7599 23.3299 5.26492C23.3086 5.12415 23.2481 4.99223 23.1552 4.88433C23.0623 4.77643 22.9409 4.69691 22.8049 4.65492C21.7615 4.32158 20.0015 3.77825 18.2632 3.31825C16.4865 2.84992 14.8515 2.49992 14.0015 2.49992C13.1515 2.49992 11.5182 2.84992 9.73987 3.31825ZM9.31321 1.70825C11.0515 1.24825 12.8965 0.833252 14.0015 0.833252C15.1049 0.833252 16.9515 1.24825 18.6899 1.70825C20.2404 2.12454 21.7808 2.57745 23.3099 3.06659C24.1899 3.34659 24.8532 4.10492 24.9815 5.03992C25.9365 12.0349 23.7215 17.2183 21.0365 20.6483C19.8923 22.1203 18.5339 23.4124 17.0065 24.4816C16.4755 24.8536 15.914 25.1803 15.3282 25.4582C14.8782 25.6649 14.3982 25.8333 14.0015 25.8333C13.6049 25.8333 13.1249 25.6649 12.6749 25.4582C12.0889 25.1805 11.5275 24.8538 10.9965 24.4816C9.46978 23.4123 8.11191 22.1201 6.96821 20.6483C4.27988 17.2183 2.06654 12.0349 3.02154 5.03992C3.08539 4.5867 3.27629 4.16084 3.57213 3.81161C3.86797 3.46238 4.25666 3.20408 4.69321 3.06659C6.22229 2.57746 7.76272 2.12455 9.31321 1.70825Z" fill="#FF8642"/>
<path fill-rule="evenodd" clip-rule="evenodd" d="M13.9999 9.16675C14.2209 9.16675 14.4329 9.25455 14.5892 9.41083C14.7455 9.56711 14.8333 9.77907 14.8333 10.0001V12.5001H17.3333C17.5543 12.5001 17.7662 12.5879 17.9225 12.7442C18.0788 12.9004 18.1666 13.1124 18.1666 13.3334C18.1666 13.5544 18.0788 13.7664 17.9225 13.9227C17.7662 14.079 17.5543 14.1667 17.3333 14.1667H14.8333V16.6667C14.8333 16.8878 14.7455 17.0997 14.5892 17.256C14.4329 17.4123 14.2209 17.5001 13.9999 17.5001C13.7789 17.5001 13.5669 17.4123 13.4107 17.256C13.2544 17.0997 13.1666 16.8878 13.1666 16.6667V14.1667H10.6666C10.4456 14.1667 10.2336 14.079 10.0773 13.9227C9.92105 13.7664 9.83325 13.5544 9.83325 13.3334C9.83325 13.1124 9.92105 12.9004 10.0773 12.7442C10.2336 12.5879 10.4456 12.5001 10.6666 12.5001H13.1666V10.0001C13.1666 9.77907 13.2544 9.56711 13.4107 9.41083C13.5669 9.25455 13.7789 9.16675 13.9999 9.16675Z" fill="#FF8642"/>
</svg>
