<svg width="28" height="27" viewBox="0 0 28 27" fill="none" xmlns="http://www.w3.org/2000/svg">
<path fill-rule="evenodd" clip-rule="evenodd" d="M9.74012 3.31831C8.21592 3.72807 6.70161 4.17375 5.19845 4.65498C5.06242 4.69697 4.94099 4.77649 4.84813 4.88439C4.75526 4.9923 4.69471 5.12421 4.67345 5.26498C3.78512 11.76 5.83512 16.5 8.28012 19.6216C9.50679 21.1883 10.8351 22.3483 11.9418 23.11C12.4968 23.49 12.9851 23.7666 13.3701 23.9433C13.5635 24.0316 13.7201 24.0916 13.8401 24.1266C13.893 24.1437 13.947 24.157 14.0018 24.1666C14.0135 24.165 14.0651 24.1583 14.1635 24.1283C14.2835 24.0916 14.4401 24.0316 14.6335 23.9433C15.0168 23.7666 15.5085 23.49 16.0618 23.11C17.4495 22.1363 18.6837 20.9605 19.7235 19.6216C22.1685 16.5 24.2185 11.76 23.3301 5.26498C23.3089 5.12421 23.2483 4.9923 23.1554 4.88439C23.0626 4.77649 22.9411 4.69697 22.8051 4.65498C21.7618 4.32165 20.0018 3.77831 18.2635 3.31831C16.4868 2.84998 14.8518 2.49998 14.0018 2.49998C13.1518 2.49998 11.5185 2.84998 9.74012 3.31831ZM9.31345 1.70831C11.0518 1.24831 12.8968 0.833313 14.0018 0.833313C15.1051 0.833313 16.9518 1.24831 18.6901 1.70831C20.2406 2.1246 21.781 2.57751 23.3101 3.06665C24.1901 3.34665 24.8535 4.10498 24.9818 5.03998C25.9368 12.035 23.7218 17.2183 21.0368 20.6483C19.8926 22.1203 18.5342 23.4125 17.0068 24.4816C16.4757 24.8537 15.9143 25.1804 15.3285 25.4583C14.8785 25.665 14.3985 25.8333 14.0018 25.8333C13.6051 25.8333 13.1251 25.665 12.6751 25.4583C12.0892 25.1806 11.5277 24.8539 10.9968 24.4816C9.47002 23.4123 8.11216 22.1202 6.96845 20.6483C4.28012 17.2183 2.06679 12.035 3.02179 5.03998C3.08564 4.58676 3.27653 4.1609 3.57237 3.81167C3.86821 3.46244 4.2569 3.20414 4.69345 3.06665C6.22253 2.57752 7.76296 2.12462 9.31345 1.70831Z" fill="#FF8642"/>
<path fill-rule="evenodd" clip-rule="evenodd" d="M14.0002 9.16669C14.2212 9.16669 14.4331 9.25448 14.5894 9.41076C14.7457 9.56705 14.8335 9.77901 14.8335 10V12.5H17.3335C17.5545 12.5 17.7665 12.5878 17.9228 12.7441C18.079 12.9004 18.1668 13.1123 18.1668 13.3334C18.1668 13.5544 18.079 13.7663 17.9228 13.9226C17.7665 14.0789 17.5545 14.1667 17.3335 14.1667H14.8335V16.6667C14.8335 16.8877 14.7457 17.0997 14.5894 17.2559C14.4331 17.4122 14.2212 17.5 14.0002 17.5C13.7791 17.5 13.5672 17.4122 13.4109 17.2559C13.2546 17.0997 13.1668 16.8877 13.1668 16.6667V14.1667H10.6668C10.4458 14.1667 10.2339 14.0789 10.0776 13.9226C9.92129 13.7663 9.8335 13.5544 9.8335 13.3334C9.8335 13.1123 9.92129 12.9004 10.0776 12.7441C10.2339 12.5878 10.4458 12.5 10.6668 12.5H13.1668V10C13.1668 9.77901 13.2546 9.56705 13.4109 9.41076C13.5672 9.25448 13.7791 9.16669 14.0002 9.16669Z" fill="#FF8642"/>
</svg>
