<svg width="28" height="27" viewBox="0 0 28 27" fill="none" xmlns="http://www.w3.org/2000/svg">
<path fill-rule="evenodd" clip-rule="evenodd" d="M9.74 3.31825C8.2158 3.72801 6.70149 4.17369 5.19833 4.65492C5.0623 4.69691 4.94087 4.77643 4.848 4.88433C4.75514 4.99223 4.69459 5.12415 4.67333 5.26492C3.785 11.7599 5.835 16.4999 8.28 19.6216C9.50666 21.1882 10.835 22.3482 11.9417 23.1099C12.4967 23.4899 12.985 23.7666 13.37 23.9433C13.5633 24.0316 13.72 24.0916 13.84 24.1266C13.8929 24.1436 13.9469 24.157 14.0017 24.1666C14.0133 24.1649 14.065 24.1583 14.1633 24.1283C14.2833 24.0916 14.44 24.0316 14.6333 23.9433C15.0167 23.7666 15.5083 23.4899 16.0617 23.1099C17.4494 22.1363 18.6836 20.9605 19.7233 19.6216C22.1683 16.4999 24.2183 11.7599 23.33 5.26492C23.3087 5.12415 23.2482 4.99223 23.1553 4.88433C23.0625 4.77643 22.941 4.69691 22.805 4.65492C21.7617 4.32158 20.0017 3.77825 18.2633 3.31825C16.4867 2.84992 14.8517 2.49992 14.0017 2.49992C13.1517 2.49992 11.5183 2.84992 9.74 3.31825ZM9.31333 1.70825C11.0517 1.24825 12.8967 0.833252 14.0017 0.833252C15.105 0.833252 16.9517 1.24825 18.69 1.70825C20.2405 2.12454 21.7809 2.57745 23.31 3.06659C24.19 3.34659 24.8533 4.10492 24.9817 5.03992C25.9367 12.0349 23.7217 17.2183 21.0367 20.6483C19.8925 22.1203 18.534 23.4124 17.0067 24.4816C16.4756 24.8536 15.9142 25.1803 15.3283 25.4582C14.8783 25.6649 14.3983 25.8333 14.0017 25.8333C13.605 25.8333 13.125 25.6649 12.675 25.4582C12.089 25.1805 11.5276 24.8538 10.9967 24.4816C9.4699 23.4123 8.11204 22.1201 6.96833 20.6483C4.28 17.2183 2.06666 12.0349 3.02166 5.03992C3.08552 4.5867 3.27641 4.16084 3.57225 3.81161C3.86809 3.46238 4.25678 3.20408 4.69333 3.06659C6.22241 2.57746 7.76284 2.12455 9.31333 1.70825Z" fill="#FF8642"/>
<path fill-rule="evenodd" clip-rule="evenodd" d="M14 9.16675C14.2211 9.16675 14.433 9.25455 14.5893 9.41083C14.7456 9.56711 14.8334 9.77907 14.8334 10.0001V12.5001H17.3334C17.5544 12.5001 17.7664 12.5879 17.9226 12.7442C18.0789 12.9004 18.1667 13.1124 18.1667 13.3334C18.1667 13.5544 18.0789 13.7664 17.9226 13.9227C17.7664 14.079 17.5544 14.1667 17.3334 14.1667H14.8334V16.6667C14.8334 16.8878 14.7456 17.0997 14.5893 17.256C14.433 17.4123 14.2211 17.5001 14 17.5001C13.779 17.5001 13.5671 17.4123 13.4108 17.256C13.2545 17.0997 13.1667 16.8878 13.1667 16.6667V14.1667H10.6667C10.4457 14.1667 10.2337 14.079 10.0775 13.9227C9.92117 13.7664 9.83337 13.5544 9.83337 13.3334C9.83337 13.1124 9.92117 12.9004 10.0775 12.7442C10.2337 12.5879 10.4457 12.5001 10.6667 12.5001H13.1667V10.0001C13.1667 9.77907 13.2545 9.56711 13.4108 9.41083C13.5671 9.25455 13.779 9.16675 14 9.16675Z" fill="#FF8642"/>
</svg>
