<svg width="40" height="40" viewBox="0 0 40 40" fill="none" xmlns="http://www.w3.org/2000/svg">
<path fill-rule="evenodd" clip-rule="evenodd" d="M0 25C0 23.6739 0.526784 22.4021 1.46447 21.4645C2.40215 20.5268 3.67392 20 5 20H35C36.3261 20 37.5979 20.5268 38.5355 21.4645C39.4732 22.4021 40 23.6739 40 25V27.5C40 28.8261 39.4732 30.0979 38.5355 31.0355C37.5979 31.9732 36.3261 32.5 35 32.5H5C3.67392 32.5 2.40215 31.9732 1.46447 31.0355C0.526784 30.0979 0 28.8261 0 27.5V25ZM6.25 27.5C6.58152 27.5 6.89946 27.3683 7.13388 27.1339C7.3683 26.8995 7.5 26.5815 7.5 26.25C7.5 25.9185 7.3683 25.6005 7.13388 25.3661C6.89946 25.1317 6.58152 25 6.25 25C5.91848 25 5.60054 25.1317 5.36612 25.3661C5.1317 25.6005 5 25.9185 5 26.25C5 26.5815 5.1317 26.8995 5.36612 27.1339C5.60054 27.3683 5.91848 27.5 6.25 27.5ZM11.25 27.5C11.5815 27.5 11.8995 27.3683 12.1339 27.1339C12.3683 26.8995 12.5 26.5815 12.5 26.25C12.5 25.9185 12.3683 25.6005 12.1339 25.3661C11.8995 25.1317 11.5815 25 11.25 25C10.9185 25 10.6005 25.1317 10.3661 25.3661C10.1317 25.6005 10 25.9185 10 26.25C10 26.5815 10.1317 26.8995 10.3661 27.1339C10.6005 27.3683 10.9185 27.5 11.25 27.5Z" fill="#606060"/>
<path d="M2.27539 18.01C3.14403 17.6717 4.06822 17.4988 5.00039 17.5H35.0004C35.9604 17.5 36.8804 17.68 37.7254 18.01L33.0579 9.455C32.7354 8.86338 32.2594 8.3696 31.68 8.02558C31.1006 7.68155 30.4392 7.5 29.7654 7.5H10.2354C9.56156 7.5 8.90019 7.68155 8.3208 8.02558C7.74142 8.3696 7.26543 8.86338 6.94289 9.455L2.27539 18.01Z" fill="#606060"/>
</svg>
