<svg width="28" height="27" viewBox="0 0 28 27" fill="none" xmlns="http://www.w3.org/2000/svg">
<path fill-rule="evenodd" clip-rule="evenodd" d="M9.74012 3.31825C8.21592 3.72801 6.70161 4.17369 5.19845 4.65492C5.06242 4.69691 4.94099 4.77643 4.84813 4.88433C4.75526 4.99223 4.69471 5.12415 4.67345 5.26492C3.78512 11.7599 5.83512 16.4999 8.28012 19.6216C9.50679 21.1882 10.8351 22.3482 11.9418 23.1099C12.4968 23.4899 12.9851 23.7666 13.3701 23.9433C13.5635 24.0316 13.7201 24.0916 13.8401 24.1266C13.893 24.1436 13.947 24.157 14.0018 24.1666C14.0135 24.1649 14.0651 24.1583 14.1635 24.1283C14.2835 24.0916 14.4401 24.0316 14.6335 23.9433C15.0168 23.7666 15.5085 23.4899 16.0618 23.1099C17.4495 22.1363 18.6837 20.9605 19.7235 19.6216C22.1685 16.4999 24.2185 11.7599 23.3301 5.26492C23.3089 5.12415 23.2483 4.99223 23.1554 4.88433C23.0626 4.77643 22.9411 4.69691 22.8051 4.65492C21.7618 4.32158 20.0018 3.77825 18.2635 3.31825C16.4868 2.84992 14.8518 2.49992 14.0018 2.49992C13.1518 2.49992 11.5185 2.84992 9.74012 3.31825ZM9.31345 1.70825C11.0518 1.24825 12.8968 0.833252 14.0018 0.833252C15.1051 0.833252 16.9518 1.24825 18.6901 1.70825C20.2406 2.12454 21.781 2.57745 23.3101 3.06659C24.1901 3.34659 24.8535 4.10492 24.9818 5.03992C25.9368 12.0349 23.7218 17.2183 21.0368 20.6483C19.8926 22.1203 18.5342 23.4124 17.0068 24.4816C16.4757 24.8536 15.9143 25.1803 15.3285 25.4582C14.8785 25.6649 14.3985 25.8333 14.0018 25.8333C13.6051 25.8333 13.1251 25.6649 12.6751 25.4582C12.0892 25.1805 11.5277 24.8538 10.9968 24.4816C9.47002 23.4123 8.11216 22.1201 6.96845 20.6483C4.28012 17.2183 2.06679 12.0349 3.02179 5.03992C3.08564 4.5867 3.27653 4.16084 3.57237 3.81161C3.86821 3.46238 4.2569 3.20408 4.69345 3.06659C6.22253 2.57746 7.76296 2.12455 9.31345 1.70825Z" fill="#FF8642"/>
<path fill-rule="evenodd" clip-rule="evenodd" d="M14.0002 9.16675C14.2212 9.16675 14.4331 9.25455 14.5894 9.41083C14.7457 9.56711 14.8335 9.77907 14.8335 10.0001V12.5001H17.3335C17.5545 12.5001 17.7665 12.5879 17.9228 12.7442C18.079 12.9004 18.1668 13.1124 18.1668 13.3334C18.1668 13.5544 18.079 13.7664 17.9228 13.9227C17.7665 14.079 17.5545 14.1667 17.3335 14.1667H14.8335V16.6667C14.8335 16.8878 14.7457 17.0997 14.5894 17.256C14.4331 17.4123 14.2212 17.5001 14.0002 17.5001C13.7791 17.5001 13.5672 17.4123 13.4109 17.256C13.2546 17.0997 13.1668 16.8878 13.1668 16.6667V14.1667H10.6668C10.4458 14.1667 10.2339 14.079 10.0776 13.9227C9.92129 13.7664 9.8335 13.5544 9.8335 13.3334C9.8335 13.1124 9.92129 12.9004 10.0776 12.7442C10.2339 12.5879 10.4458 12.5001 10.6668 12.5001H13.1668V10.0001C13.1668 9.77907 13.2546 9.56711 13.4109 9.41083C13.5672 9.25455 13.7791 9.16675 14.0002 9.16675Z" fill="#FF8642"/>
</svg>
