<svg width="16" height="17" viewBox="0 0 16 17" fill="none" xmlns="http://www.w3.org/2000/svg">
<path d="M4.66659 7.83325L7.33325 1.83325C7.86369 1.83325 8.37239 2.04397 8.74747 2.41904C9.12254 2.79411 9.33325 3.30282 9.33325 3.83325V6.49992H13.1066C13.2999 6.49773 13.4913 6.53759 13.6676 6.61673C13.844 6.69587 14.001 6.81241 14.1278 6.95826C14.2547 7.10412 14.3483 7.2758 14.4021 7.46142C14.456 7.64704 14.4689 7.84216 14.4399 8.03325L13.5199 14.0333C13.4717 14.3512 13.3102 14.641 13.0652 14.8493C12.8202 15.0575 12.5081 15.1702 12.1866 15.1666H4.66659M4.66659 7.83325V15.1666M4.66659 7.83325H2.66659C2.31296 7.83325 1.97382 7.97373 1.72378 8.22378C1.47373 8.47383 1.33325 8.81296 1.33325 9.16659V13.8333C1.33325 14.1869 1.47373 14.526 1.72378 14.7761C1.97382 15.0261 2.31296 15.1666 2.66659 15.1666H4.66659" stroke="#1E1E1E" stroke-linecap="round" stroke-linejoin="round"/>
</svg>
