<svg width="28" height="27" viewBox="0 0 28 27" fill="none" xmlns="http://www.w3.org/2000/svg">
<path fill-rule="evenodd" clip-rule="evenodd" d="M9.73987 3.3185C8.21568 3.72825 6.70137 4.17393 5.19821 4.65516C5.06218 4.69715 4.94075 4.77667 4.84788 4.88457C4.75501 4.99248 4.69447 5.12439 4.67321 5.26516C3.78488 11.7602 5.83487 16.5002 8.27987 19.6218C9.50654 21.1885 10.8349 22.3485 11.9415 23.1102C12.4965 23.4902 12.9849 23.7668 13.3699 23.9435C13.5632 24.0318 13.7199 24.0918 13.8399 24.1268C13.8928 24.1438 13.9468 24.1572 14.0015 24.1668C14.0132 24.1652 14.0649 24.1585 14.1632 24.1285C14.2832 24.0918 14.4399 24.0318 14.6332 23.9435C15.0165 23.7668 15.5082 23.4902 16.0615 23.1102C17.4492 22.1365 18.6835 20.9607 19.7232 19.6218C22.1682 16.5002 24.2182 11.7602 23.3299 5.26516C23.3086 5.12439 23.2481 4.99248 23.1552 4.88457C23.0623 4.77667 22.9409 4.69715 22.8049 4.65516C21.7615 4.32183 20.0015 3.7785 18.2632 3.3185C16.4865 2.85016 14.8515 2.50016 14.0015 2.50016C13.1515 2.50016 11.5182 2.85016 9.73987 3.3185ZM9.31321 1.7085C11.0515 1.2485 12.8965 0.833496 14.0015 0.833496C15.1049 0.833496 16.9515 1.2485 18.6899 1.7085C20.2404 2.12479 21.7808 2.57769 23.3099 3.06683C24.1899 3.34683 24.8532 4.10516 24.9815 5.04016C25.9365 12.0352 23.7215 17.2185 21.0365 20.6485C19.8923 22.1205 18.5339 23.4126 17.0065 24.4818C16.4755 24.8538 15.914 25.1805 15.3282 25.4585C14.8782 25.6652 14.3982 25.8335 14.0015 25.8335C13.6049 25.8335 13.1249 25.6652 12.6749 25.4585C12.0889 25.1808 11.5275 24.8541 10.9965 24.4818C9.46978 23.4125 8.11191 22.1204 6.96821 20.6485C4.27988 17.2185 2.06654 12.0352 3.02154 5.04016C3.08539 4.58695 3.27629 4.16108 3.57213 3.81185C3.86797 3.46263 4.25666 3.20432 4.69321 3.06683C6.22229 2.5777 7.76272 2.1248 9.31321 1.7085Z" fill="#FF8642"/>
<path fill-rule="evenodd" clip-rule="evenodd" d="M13.9999 9.1665C14.2209 9.1665 14.4329 9.2543 14.5892 9.41058C14.7455 9.56686 14.8333 9.77882 14.8333 9.99984V12.4998H17.3333C17.5543 12.4998 17.7662 12.5876 17.9225 12.7439C18.0788 12.9002 18.1666 13.1122 18.1666 13.3332C18.1666 13.5542 18.0788 13.7661 17.9225 13.9224C17.7662 14.0787 17.5543 14.1665 17.3333 14.1665H14.8333V16.6665C14.8333 16.8875 14.7455 17.0995 14.5892 17.2558C14.4329 17.412 14.2209 17.4998 13.9999 17.4998C13.7789 17.4998 13.5669 17.412 13.4107 17.2558C13.2544 17.0995 13.1666 16.8875 13.1666 16.6665V14.1665H10.6666C10.4456 14.1665 10.2336 14.0787 10.0773 13.9224C9.92105 13.7661 9.83325 13.5542 9.83325 13.3332C9.83325 13.1122 9.92105 12.9002 10.0773 12.7439C10.2336 12.5876 10.4456 12.4998 10.6666 12.4998H13.1666V9.99984C13.1666 9.77882 13.2544 9.56686 13.4107 9.41058C13.5669 9.2543 13.7789 9.1665 13.9999 9.1665Z" fill="#FF8642"/>
</svg>
