<svg width="28" height="27" viewBox="0 0 28 27" fill="none" xmlns="http://www.w3.org/2000/svg">
<path fill-rule="evenodd" clip-rule="evenodd" d="M9.74 3.3185C8.2158 3.72825 6.70149 4.17393 5.19833 4.65516C5.0623 4.69715 4.94087 4.77667 4.848 4.88457C4.75514 4.99248 4.69459 5.12439 4.67333 5.26516C3.785 11.7602 5.835 16.5002 8.28 19.6218C9.50666 21.1885 10.835 22.3485 11.9417 23.1102C12.4967 23.4902 12.985 23.7668 13.37 23.9435C13.5633 24.0318 13.72 24.0918 13.84 24.1268C13.8929 24.1438 13.9469 24.1572 14.0017 24.1668C14.0133 24.1652 14.065 24.1585 14.1633 24.1285C14.2833 24.0918 14.44 24.0318 14.6333 23.9435C15.0167 23.7668 15.5083 23.4902 16.0617 23.1102C17.4494 22.1365 18.6836 20.9607 19.7233 19.6218C22.1683 16.5002 24.2183 11.7602 23.33 5.26516C23.3087 5.12439 23.2482 4.99248 23.1553 4.88457C23.0625 4.77667 22.941 4.69715 22.805 4.65516C21.7617 4.32183 20.0017 3.7785 18.2633 3.3185C16.4867 2.85016 14.8517 2.50016 14.0017 2.50016C13.1517 2.50016 11.5183 2.85016 9.74 3.3185ZM9.31333 1.7085C11.0517 1.2485 12.8967 0.833496 14.0017 0.833496C15.105 0.833496 16.9517 1.2485 18.69 1.7085C20.2405 2.12479 21.7809 2.57769 23.31 3.06683C24.19 3.34683 24.8533 4.10516 24.9817 5.04016C25.9367 12.0352 23.7217 17.2185 21.0367 20.6485C19.8925 22.1205 18.534 23.4126 17.0067 24.4818C16.4756 24.8538 15.9142 25.1805 15.3283 25.4585C14.8783 25.6652 14.3983 25.8335 14.0017 25.8335C13.605 25.8335 13.125 25.6652 12.675 25.4585C12.089 25.1808 11.5276 24.8541 10.9967 24.4818C9.4699 23.4125 8.11204 22.1204 6.96833 20.6485C4.28 17.2185 2.06666 12.0352 3.02166 5.04016C3.08552 4.58695 3.27641 4.16108 3.57225 3.81185C3.86809 3.46263 4.25678 3.20432 4.69333 3.06683C6.22241 2.5777 7.76284 2.1248 9.31333 1.7085Z" fill="#FF8642"/>
<path fill-rule="evenodd" clip-rule="evenodd" d="M14 9.1665C14.2211 9.1665 14.433 9.2543 14.5893 9.41058C14.7456 9.56686 14.8334 9.77882 14.8334 9.99984V12.4998H17.3334C17.5544 12.4998 17.7664 12.5876 17.9226 12.7439C18.0789 12.9002 18.1667 13.1122 18.1667 13.3332C18.1667 13.5542 18.0789 13.7661 17.9226 13.9224C17.7664 14.0787 17.5544 14.1665 17.3334 14.1665H14.8334V16.6665C14.8334 16.8875 14.7456 17.0995 14.5893 17.2558C14.433 17.412 14.2211 17.4998 14 17.4998C13.779 17.4998 13.5671 17.412 13.4108 17.2558C13.2545 17.0995 13.1667 16.8875 13.1667 16.6665V14.1665H10.6667C10.4457 14.1665 10.2337 14.0787 10.0775 13.9224C9.92117 13.7661 9.83337 13.5542 9.83337 13.3332C9.83337 13.1122 9.92117 12.9002 10.0775 12.7439C10.2337 12.5876 10.4457 12.4998 10.6667 12.4998H13.1667V9.99984C13.1667 9.77882 13.2545 9.56686 13.4108 9.41058C13.5671 9.2543 13.779 9.1665 14 9.1665Z" fill="#FF8642"/>
</svg>
